<?xml version="1.0" encoding="UTF-8"?>
<svg id="Layer_1" data-name="Layer 1" xmlns="http://www.w3.org/2000/svg" version="1.1" viewBox="0 0 171.5 92.2">
  <defs>
    <style>
      .cls-1 {
        fill: #eb2028;
        stroke: #232323;
        stroke-width: .5px;
      }

      .cls-1, .cls-2 {
        stroke-miterlimit: 10;
      }

      .cls-2 {
        fill: #f5f5f5;
        stroke: #f5f5f5;
      }
    </style>
  </defs>
  <rect class="cls-1" x=".2" y=".2" width="171" height="91.7" rx="5" ry="5"/>
  <path class="cls-2" d="M54,39.8c0,13.6,11.1,24.7,24.8,24.7,5.3,0,10.2-1.7,14.2-4.5l16.7,16.7c.5.5,1.4.5,2,0l3.9-3.9c.5-.5.5-1.4,0-2l-16.7-16.7c2.8-4,4.5-8.9,4.5-14.2,0-13.6-11-24.8-24.7-24.8-13.6,0-24.7,11-24.7,24.7ZM98.5,39.8c0,10.9-8.8,19.8-19.8,19.8-10.7,0-19.7-9-19.7-19.7s8.8-19.8,19.8-19.8c10.7,0,19.7,9,19.7,19.7Z"/>
</svg>