<?xml version="1.0" encoding="UTF-8"?>
<svg id="Layer_1" data-name="Layer 1" xmlns="http://www.w3.org/2000/svg" version="1.1" viewBox="0 0 126 109.6">
  <defs>
    <style>
      .cls-1 {
        fill: #eb2028;
        stroke-width: 0px;
      }
    </style>
  </defs>
  <path id="Trazado_8346" data-name="Trazado 8346" class="cls-1" d="M43.5,0c-.4,2.9-.7,5.2-.9,7.4-.9,10.3,3.6,18,11.4,24.1,7.3,5.7,15.8,8.5,24.6,10.7,11.6,2.9,22.8,6.8,32.4,14.2,7,5.3,12.3,12.6,14.9,21-4.4-2.3-9.4-3.3-14.3-2.9-8.2.7-16.1,3.1-23.2,7.2-8.3,4.5-16.4,9.5-24.5,14.6-10.2,6.4-20.9,11.3-32.9,12.8-11.2,1.4-21.7,0-30-8.6-.3-.3-.6-.7-1-1.2.4-.2.8-.3,1.2-.3,10.9.4,17-6.4,20-14.7,3.3-9.4,3.5-19.2,3.3-29-.3-13.1,0-26.1,5.7-38.2,3.1-6.6,7.7-12.5,13.4-17Z"/>
</svg>